<svg width="35" height="34" viewBox="0 0 35 34" fill="none" xmlns="http://www.w3.org/2000/svg">
<g filter="url(#filter0_i_225_5282)">
<path d="M19.9995 18.3063H18.1536C16.6394 18.3063 15.406 17.0813 15.406 15.5586V13.7127C15.406 13.3639 15.1253 13.0747 14.768 13.0747H12.0714C10.1064 13.0747 8.51562 14.3507 8.51562 16.6305V22.2789C8.51562 24.5586 10.1064 25.8346 12.0714 25.8346H17.0818C19.0468 25.8346 20.6375 24.5586 20.6375 22.2789V18.9443C20.6375 18.587 20.3483 18.3063 19.9995 18.3063Z" fill="white"/>
<path d="M21.9732 8.8208H20.2974H19.3702H16.9628C15.0403 8.8208 13.4836 10.0458 13.4155 12.232C13.4666 12.232 13.5091 12.2234 13.5601 12.2234H15.9675H16.8947H18.5705C20.5356 12.2234 22.1263 13.4994 22.1263 15.7792V17.455V19.7603V21.4361C22.1263 21.4871 22.1178 21.5297 22.1178 21.5722C24.0148 21.5127 25.5289 20.2537 25.5289 18.0335V16.3577V14.0524V12.3766C25.5289 10.0968 23.9382 8.8208 21.9732 8.8208Z" fill="white"/>
<path d="M17.0061 13.2045C16.7424 12.9408 16.2915 13.1194 16.2915 13.4852V15.7139C16.2915 16.6496 17.0826 17.4152 18.0524 17.4152C18.6563 17.4237 19.4985 17.4237 20.2216 17.4237C20.5873 17.4237 20.7745 16.9984 20.5193 16.7432C19.5921 15.816 17.9418 14.1572 17.0061 13.2045Z" fill="white"/>
</g>
<defs>
<filter id="filter0_i_225_5282" x="0.0078125" y="-0.108473" width="34.0264" height="34.0264" filterUnits="userSpaceOnUse" color-interpolation-filters="sRGB">
<feFlood flood-opacity="0" result="BackgroundImageFix"/>
<feBlend mode="normal" in="SourceGraphic" in2="BackgroundImageFix" result="shape"/>
<feColorMatrix in="SourceAlpha" type="matrix" values="0 0 0 0 0 0 0 0 0 0 0 0 0 0 0 0 0 0 127 0" result="hardAlpha"/>
<feOffset dy="-0.850661"/>
<feGaussianBlur stdDeviation="1.70132"/>
<feComposite in2="hardAlpha" operator="arithmetic" k2="-1" k3="1"/>
<feColorMatrix type="matrix" values="0 0 0 0 0.496726 0 0 0 0 0.496726 0 0 0 0 0.496726 0 0 0 0.25 0"/>
<feBlend mode="normal" in2="shape" result="effect1_innerShadow_225_5282"/>
</filter>
</defs>
</svg>
