<svg width="68" height="68" viewBox="0 0 68 68" fill="none" xmlns="http://www.w3.org/2000/svg">
<g clip-path="url(#clip0_225_5277)">
<path d="M61.3999 16.7711H10.5646C9.95739 16.8886 9.33175 16.8704 8.73245 16.7178C8.13314 16.5651 7.57501 16.2819 7.09802 15.8882C6.62103 15.4946 6.23698 15.0004 5.97338 14.441C5.70978 13.8815 5.57316 13.2707 5.57329 12.6523V12.5726L59.3027 10.4796V5.48835C59.3903 4.74365 59.3075 3.98878 59.0607 3.28075C58.8138 2.57272 58.4093 1.93004 57.8776 1.40124C57.346 0.872441 56.7012 0.471349 55.9919 0.228254C55.2825 -0.0148414 54.5272 -0.093585 53.783 -0.00203051L6.07661 7.7533C4.46519 8.3456 3.0743 9.41808 2.09173 10.8259C1.10915 12.2338 0.582208 13.9092 0.582031 15.6261L0.582031 60.8074C0.582031 62.4761 1.24488 64.0763 2.42477 65.2562C3.60466 66.4361 5.20492 67.0989 6.87354 67.0989H61.3999C63.0685 67.0989 64.6688 66.4361 65.8487 65.2562C67.0286 64.0763 67.6914 62.4761 67.6914 60.8074V23.0165L67.6956 22.8445C67.6956 21.2315 67.0548 19.6846 65.9143 18.544C64.7737 17.4035 63.2268 16.7627 61.6138 16.7627L61.3915 16.7669L61.3999 16.7711ZM55.1084 46.1315C53.4392 46.1309 51.8386 45.4673 50.6588 44.2866C49.4789 43.106 48.8163 41.5049 48.8169 39.8358C48.8175 38.1666 49.4811 36.566 50.6617 35.3861C51.8424 34.2062 53.4434 33.5437 55.1126 33.5443C55.9391 33.5445 56.7574 33.7076 57.5209 34.0241C58.2844 34.3407 58.978 34.8045 59.5622 35.3891C60.1465 35.9737 60.6098 36.6677 60.9258 37.4313C61.2419 38.195 61.4044 39.0135 61.4041 39.84C61.4038 40.6664 61.2408 41.4848 60.9242 42.2483C60.6077 43.0117 60.1439 43.7054 59.5593 44.2896C58.9747 44.8738 58.2807 45.3372 57.517 45.6532C56.7533 45.9692 55.9349 46.1317 55.1084 46.1315Z" fill="url(#paint0_linear_225_5277)"/>
</g>
<defs>
<linearGradient id="paint0_linear_225_5277" x1="-10.8379" y1="2.59854" x2="101.51" y2="114.946" gradientUnits="userSpaceOnUse">
<stop stop-color="#4CF37B"/>
<stop offset="1" stop-color="#F001FE"/>
</linearGradient>
<clipPath id="clip0_225_5277">
<rect width="67.1094" height="67.1094" fill="white" transform="translate(0.582031)"/>
</clipPath>
</defs>
</svg>
